<svg width="111" height="65" viewBox="0 0 111 65" fill="none" xmlns="http://www.w3.org/2000/svg">
    <path fill-rule="evenodd" clip-rule="evenodd"
          d="M88.9765 13.22C87.0715 20.2988 85.175 27.3796 83.3173 34.4711C82.3882 38.0163 81.4762 41.564 80.4066 45.0719C79.3677 48.4802 78.0916 52.1181 76.2319 55.2136C74.2921 58.444 71.7803 60.9665 68.304 62.5815C66.9142 63.2265 65.49 63.6692 63.9959 63.9859C61.8758 64.4351 59.7462 64.6199 57.5919 64.7418C52.2569 65.0424 40.9394 64.9976 35.606 64.9976L38.8758 52.8795C41.3509 52.8795 43.8255 52.888 46.3001 52.8195C48.688 52.7531 51.3157 52.6252 53.6675 52.0692C56.2428 51.4599 58.1861 50.4144 59.8882 48.319C61.4387 46.4105 62.4811 44.029 63.3352 41.7831C64.8953 37.6814 66.4927 31.8086 67.6187 27.5851C68.8922 22.8041 70.1164 18.011 71.3502 13.22H88.9765ZM111.01 13.2199L101.498 48.473H83.8722L93.3833 13.2199H111.01ZM52.883 0H70.5093C68.6627 6.88143 66.8186 13.7634 64.9508 20.6393C63.649 25.4293 62.3563 30.2214 60.9433 34.9807C60.3269 37.0555 59.7115 39.1242 58.9038 41.1385C58.2547 42.7565 57.529 44.1963 56.1875 45.4054C55.1854 46.3083 54.0926 46.8698 52.82 47.2701C51.1829 47.7853 49.5281 47.9741 47.8366 48.1126C45.4038 48.312 42.9705 48.3629 40.5337 48.4022C34.9293 48.4923 24.7519 48.4797 19.1476 48.4556C17.1338 48.4465 15.12 48.4344 13.1061 48.3976C11.6462 48.3715 10.1879 48.3352 8.73001 48.2441C7.75659 48.1826 6.79072 48.101 5.82888 47.9238C5.17624 47.8039 4.54777 47.6428 3.93542 47.3754C1.91858 46.4941 0.890769 44.7326 0.830843 42.5873C0.796096 41.3596 1.00961 40.1903 1.25536 39.0028C1.60434 37.3209 2.03893 35.6621 2.4695 34.0013C3.29134 30.8282 4.79554 24.9736 5.96787 21.8917C6.8864 19.4765 8.09953 17.0729 10.4044 15.544C11.6931 14.6895 13.0472 14.2352 14.5403 13.9346C15.6472 13.712 16.7596 13.5942 17.8821 13.5106C19.762 13.3711 21.6433 13.3273 23.5267 13.294C26.2033 13.2472 28.8798 13.2371 31.5563 13.2291L38.233 13.22H44.9093L42.5314 22.0332C38.5632 22.0332 34.5959 22.0221 30.6277 22.0453C29.4695 22.0523 28.3128 22.0438 27.1555 22.1193C26.7446 22.146 26.3433 22.1727 25.9459 22.3117C25.4232 22.4929 25.1649 22.8213 24.9352 23.2926C24.5994 23.9825 24.4055 24.7102 24.1915 25.4384C23.8646 26.5503 23.562 27.6687 23.2588 28.7877C22.792 30.5115 22.3252 32.2352 21.882 33.9655C21.7184 34.6061 21.5577 35.2466 21.4197 35.8932C21.3226 36.3465 21.2349 36.7982 21.1916 37.2605C21.1443 37.766 21.1297 38.3734 21.4359 38.8427C21.7471 39.3191 22.2733 39.4299 22.7643 39.5009C23.3193 39.582 23.8752 39.5996 24.4332 39.6162C25.3467 39.6439 26.2602 39.6479 27.1737 39.6525C29.6729 39.6645 32.1722 39.6651 34.6715 39.6494C35.8232 39.6424 36.9739 39.6343 38.1245 39.588C38.9172 39.5563 39.6997 39.5291 40.4803 39.3402C41.0735 39.1967 41.5373 38.9711 41.9387 38.4862C42.2101 38.1578 42.3873 37.7937 42.5495 37.407C42.9524 36.4482 43.2339 35.4556 43.5275 34.4636C44.654 30.658 45.6687 26.8232 46.7056 22.993L49.8022 11.4988L52.883 0Z"
          fill="white"/>
</svg>
